<?xml version="1.0" encoding="UTF-8"?>
<svg id="Capa_1" data-name="Capa 1" xmlns="http://www.w3.org/2000/svg" viewBox="0 0 1080 1080">
  <defs>
    <style>
      .cls-1 {
        fill: #1a1a1a;
        stroke-width: 0px;
      }
    </style>
  </defs>
  <circle class="cls-1" cx="540" cy="169.36" r="169.36"/>
  <path class="cls-1" d="M936.35,341.57l-213.55,195.39c-3.66,3.35-7.57,6.38-11.68,9.05h.1v77.04h-342.44v-77.04h.09c-4.11-2.68-8.02-5.7-11.68-9.05l-213.55-195.39c-37-33.86-39.55-91.3-5.69-128.31,33.86-37.01,91.3-39.55,128.31-5.69l187.52,171.56h172.45l187.51-171.56c37.01-33.87,94.45-31.31,128.31,5.69,33.87,37.01,31.31,94.45-5.69,128.31Z"/>
  <path class="cls-1" d="M832.99,906.84l-101.48,136.52c-14.96,20.12-36.66,32.28-59.66,35.67-22.99,3.39-47.28-2.01-67.41-16.96-40.25-29.93-48.63-86.81-18.71-127.07l51.77-69.63-40.66-36.05,108.76-146.31,114.73,101.7c35.27,31.26,40.76,84.32,12.65,122.14Z"/>
  <path class="cls-1" d="M247.01,906.84l101.48,136.52c14.96,20.12,36.66,32.28,59.66,35.67,22.99,3.39,47.28-2.01,67.41-16.96,40.25-29.93,48.63-86.81,18.71-127.07l-51.77-69.63,40.66-36.05-108.76-146.31-114.73,101.7c-35.27,31.26-40.76,84.32-12.65,122.14Z"/>
</svg>