<?xml version="1.0" encoding="UTF-8"?>
<svg id="Capa_1" data-name="Capa 1" xmlns="http://www.w3.org/2000/svg" viewBox="0 0 1080 1080">
  <defs>
    <style>
      .cls-1 {
        fill: #5cb85c;
      }

      .cls-1, .cls-2 {
        stroke-width: 0px;
      }

      .cls-2 {
        fill: #278ccc;
      }
    </style>
  </defs>
  <path class="cls-1" d="M500.42,0c71.43,0,162.83,11.01,274.12,32.98l55.65,12.36-8.24,218.47c-108.56-10.98-188.94-16.49-241.15-16.49-94.8,0-157.67,20.29-188.59,60.8-30.92,40.54-46.38,117.16-46.38,229.81s15.46,189.97,46.38,231.87c30.92,41.93,94.45,62.86,190.65,62.86l239.08-16.49,8.24,220.54c-147.04,28.86-259.01,43.29-335.95,43.29-152.52,0-262.11-42.94-328.74-128.82-66.66-85.86-99.96-223.63-99.96-413.25S99.87,211.26,168.59,126.75C237.28,42.25,347.91,0,500.42,0Z"/>
  <g>
    <path class="cls-2" d="M1009.24,501.14c-1.49-1.25-14.91-11.47-43.74-11.47-7.46,0-15.16.75-22.61,1.99-5.47-38.15-37.03-56.6-38.27-57.6l-7.7-4.49-4.97,7.23c-6.21,9.72-10.93,20.69-13.67,31.91-5.22,21.69-1.99,42.14,8.95,59.59-13.17,7.48-34.55,9.23-39.02,9.47h-352.9c-9.2,0-16.65,7.48-16.65,16.71-.5,30.92,4.72,61.84,15.41,91.01,12.18,31.91,30.32,55.6,53.68,70.06,26.34,16.21,69.34,25.43,117.8,25.43,21.87,0,43.74-1.99,65.36-5.98,30.07-5.49,58.9-15.96,85.49-31.17,21.87-12.72,41.5-28.92,58.15-47.87,28.08-31.67,44.73-67.07,56.91-98.49h4.97c30.57,0,49.46-12.22,59.89-22.69,6.96-6.48,12.18-14.46,15.91-23.44l2.24-6.48-5.22-3.74Z"/>
    <path class="cls-2" d="M523.85,520.88h76.93c3.64,0,6.88-2.85,6.88-6.92v-69.17c0-3.66-2.83-6.92-6.88-6.92h-76.93c-3.64,0-6.88,2.85-6.88,6.92v69.17c.4,4.07,3.24,6.92,6.88,6.92ZM629.93,520.88h76.93c3.64,0,6.88-2.85,6.88-6.92v-69.17c0-3.66-2.83-6.92-6.88-6.92h-76.93c-3.64,0-6.88,2.85-6.88,6.92v69.17c.4,4.07,3.24,6.92,6.88,6.92ZM738.03,520.88h76.93c3.64,0,6.88-2.85,6.88-6.92v-69.17c0-3.66-2.83-6.92-6.88-6.92h-76.93c-3.64,0-6.88,2.85-6.88,6.92v69.17c0,4.07,2.83,6.92,6.88,6.92ZM629.93,422.01h76.93c3.64,0,6.88-3.26,6.88-6.92v-69.17c0-3.66-2.83-6.92-6.88-6.92h-76.93c-3.64,0-6.88,2.85-6.88,6.92v69.17c.4,3.66,3.24,6.92,6.88,6.92Z"/>
  </g>
</svg>